<?xml version="1.0" encoding="UTF-8" standalone="no"?><!DOCTYPE svg PUBLIC "-//W3C//DTD SVG 1.1//EN" "http://www.w3.org/Graphics/SVG/1.1/DTD/svg11.dtd"><svg width="100%" height="100%" viewBox="0 0 1941 1949" version="1.1" xmlns="http://www.w3.org/2000/svg" xmlns:xlink="http://www.w3.org/1999/xlink" xml:space="preserve" xmlns:serif="http://www.serif.com/" style="fill-rule:evenodd;clip-rule:evenodd;stroke-linejoin:round;stroke-miterlimit:1.41421;"><g id="gdpr-logo"><rect id="background" x="0" y="0" width="1941" height="1948" style="fill:#039;"/><g id="icon"><g id="text"><path d="M647.442,960.2l89.46,0l0,116.92c-14.5,4.738 -28.151,8.045 -40.952,9.953c-12.802,1.908 -25.887,2.83 -39.252,2.83c-34.036,0 -60.024,-9.985 -77.968,-29.986c-17.943,-20 -26.913,-48.714 -26.913,-86.14c0,-36.408 10.41,-64.772 31.232,-85.122c20.821,-20.382 49.687,-30.558 86.604,-30.558c23.136,0 45.448,4.643 66.94,13.896l-15.889,38.253c-16.452,-8.236 -33.572,-12.338 -51.36,-12.338c-20.668,0 -37.222,6.932 -49.664,20.796c-12.443,13.895 -18.663,32.561 -18.663,55.996c0,24.484 5.012,43.181 15.038,56.059c10.025,12.91 24.601,19.365 43.728,19.365c9.972,0 20.102,-1.018 30.383,-3.085l0,-47.028l-42.724,0l0,-39.811Z" style="fill:#fff;fill-rule:nonzero;"/><path d="M928,973.173c0,-48.428 -21.39,-72.658 -64.162,-72.658l-25.451,0l0,146.842l20.513,0c46.066,0 69.1,-24.738 69.1,-74.184Zm49.662,-1.24c0,37.108 -10.564,65.535 -31.693,85.282c-21.133,19.746 -51.646,29.635 -91.54,29.635l-63.856,0l0,-225.509l70.795,0c36.809,0 65.398,9.73 85.755,29.158c20.36,19.429 30.539,46.584 30.539,81.434Z" style="fill:#fff;fill-rule:nonzero;"/><path d="M1072.21,967.45l15.734,0c14.703,0 25.705,-2.894 33.006,-8.713c7.297,-5.819 10.951,-14.277 10.951,-25.375c0,-11.192 -3.062,-19.491 -9.177,-24.834c-6.121,-5.342 -15.708,-8.013 -28.768,-8.013l-21.746,0l0,66.935Zm107.966,-35.773c0,24.262 -7.584,42.832 -22.751,55.678c-15.165,12.846 -36.736,19.269 -64.699,19.269l-20.516,0l0,80.226l-47.814,0l0,-225.509l72.031,0c27.349,0 48.145,5.882 62.387,17.647c14.239,11.797 21.362,29.35 21.362,52.689Z" style="fill:#fff;fill-rule:nonzero;"/><path d="M1270.56,961.44l15.425,0c15.113,0 26.271,-2.512 33.467,-7.568c7.196,-5.024 10.799,-12.942 10.799,-23.753c0,-10.684 -3.676,-18.284 -11.028,-22.799c-7.351,-4.547 -18.742,-6.805 -34.163,-6.805l-14.5,0l0,60.925Zm0,38.857l0,86.553l-47.814,0l0,-225.509l65.703,0c30.644,0 53.316,5.564 68.022,16.725c14.703,11.161 22.055,28.109 22.055,50.845c0,13.259 -3.651,25.056 -10.951,35.391c-7.304,10.334 -17.635,18.411 -31.003,24.293l66.321,98.255l-53.055,0l-53.83,-86.553l-25.448,0Z" style="fill:#fff;fill-rule:nonzero;"/></g><g id="stars"><path id="sheild" d="M1696.1,1084.21l-0.052,0c-103.887,-29.513 -114.319,-139.286 -113.781,-186.964c51.749,-1.705 91.498,-18.712 113.781,-31.027l0.026,0.014l0.026,-0.014c22.283,12.315 62.032,29.322 113.781,31.027c0.538,47.678 -9.894,157.451 -113.781,186.964Zm0.633,-168.693l13.342,41.063l43.176,0l-34.93,25.378l13.342,41.063l-34.93,-25.378l-34.931,25.378l13.343,-41.063l-34.931,-25.378l43.176,0l13.343,-41.063Z" style="fill:#fc0;"/><path d="M1599.23,494.705l26.948,82.939l87.208,0l-70.552,51.26l26.948,82.939l-70.552,-51.259l-70.553,51.259l26.949,-82.939l-70.553,-51.26l87.208,0l26.949,-82.939Z" style="fill:#fc0;"/><path d="M1333.71,228.911l26.949,82.94l87.208,0l-70.553,51.259l26.949,82.94l-70.553,-51.26l-70.552,51.26l26.948,-82.94l-70.552,-51.259l87.208,0l26.948,-82.94Z" style="fill:#fc0;"/><path d="M970.508,131.276l26.949,82.94l87.208,0l-70.553,51.259l26.949,82.94l-70.553,-51.26l-70.552,51.26l26.948,-82.94l-70.552,-51.259l87.208,0l26.948,-82.94Z" style="fill:#fc0;"/><path d="M607.425,228.911l26.949,82.94l87.207,0l-70.552,51.259l26.949,82.94l-70.553,-51.26l-70.553,51.26l26.949,-82.94l-70.553,-51.259l87.208,0l26.949,-82.94Z" style="fill:#fc0;"/><path d="M341.842,494.705l26.948,82.939l87.208,0l-70.552,51.26l26.948,82.939l-70.552,-51.259l-70.553,51.259l26.949,-82.939l-70.553,-51.26l87.208,0l26.949,-82.939Z" style="fill:#fc0;"/><path d="M244.559,857.809l26.949,82.939l87.208,0l-70.553,51.26l26.949,82.939l-70.553,-51.259l-70.552,51.259l26.948,-82.939l-70.552,-51.26l87.207,0l26.949,-82.939Z" style="fill:#fc0;"/><path d="M341.842,1220.6l26.948,82.939l87.208,0l-70.552,51.26l26.948,82.939l-70.552,-51.259l-70.553,51.259l26.949,-82.939l-70.553,-51.26l87.208,0l26.949,-82.939Z" style="fill:#fc0;"/><path d="M607.425,1485.89l26.949,82.939l87.207,0l-70.552,51.26l26.949,82.939l-70.553,-51.259l-70.553,51.259l26.949,-82.939l-70.553,-51.26l87.208,0l26.949,-82.939Z" style="fill:#fc0;"/><path d="M970.5,1583.18l26.949,82.94l87.208,0l-70.553,51.259l26.949,82.94l-70.553,-51.26l-70.553,51.26l26.949,-82.94l-70.553,-51.259l87.208,0l26.949,-82.94Z" style="fill:#fc0;"/><path d="M1333.23,1485.89l26.949,82.939l87.208,0l-70.553,51.26l26.949,82.939l-70.553,-51.259l-70.553,51.259l26.949,-82.939l-70.552,-51.26l87.207,0l26.949,-82.939Z" style="fill:#fc0;"/><path d="M1599.14,1220.6l26.949,82.939l87.207,0l-70.552,51.26l26.948,82.939l-70.552,-51.259l-70.553,51.259l26.949,-82.939l-70.553,-51.26l87.208,0l26.949,-82.939Z" style="fill:#fc0;"/></g></g></g></svg>